# Blender v3.2.0 OBJ File: ''
# www.blender.org
mtllib tree1.mtl
o Cone_003
v 0.700928 2.332790 1.692198
v 0.000000 5.996030 0.000002
v 0.357329 2.332790 1.796427
v 0.000000 2.332790 1.831620
v -0.357331 2.332790 1.796426
v 1.017592 2.332790 1.522938
v 1.295150 2.332790 1.295153
v 1.522936 2.332790 1.017596
v 1.692196 2.332790 0.700933
v 1.796426 2.332790 0.357333
v 1.831620 2.332790 0.000002
v 1.796427 2.332790 -0.357330
v 1.692197 2.332790 -0.700929
v 1.522938 2.332790 -1.017592
v 1.295152 2.332790 -1.295150
v 1.017595 2.332790 -1.522936
v 0.700932 2.332790 -1.692196
v 0.357332 2.332790 -1.796426
v 0.000001 2.332790 -1.831620
v -0.357331 2.332790 -1.796426
v -0.700931 2.332790 -1.692196
v -1.017594 2.332790 -1.522936
v -1.295151 2.332790 -1.295151
v -1.522937 2.332790 -1.017593
v -1.692197 2.332790 -0.700930
v -1.796426 2.332790 -0.357331
v -1.831620 2.332790 0.000000
v -1.796426 2.332790 0.357332
v -1.692197 2.332790 0.700931
v -1.522937 2.332790 1.017594
v -1.295151 2.332790 1.295151
v -1.017594 2.332790 1.522937
v -0.700931 2.332790 1.692196
vn 0.2599 0.4455 0.8567
vn -0.0878 0.4455 0.8910
vn 0.4220 0.4455 0.7896
vn 0.5680 0.4455 0.6921
vn 0.6921 0.4455 0.5680
vn 0.7896 0.4455 0.4220
vn 0.8567 0.4455 0.2599
vn 0.8910 0.4455 0.0878
vn 0.8910 0.4455 -0.0878
vn 0.8567 0.4455 -0.2599
vn 0.7896 0.4455 -0.4220
vn 0.6921 0.4455 -0.5680
vn 0.5680 0.4455 -0.6921
vn 0.4220 0.4455 -0.7896
vn 0.2599 0.4455 -0.8567
vn 0.0878 0.4455 -0.8910
vn -0.0878 0.4455 -0.8910
vn -0.2599 0.4455 -0.8567
vn -0.4220 0.4455 -0.7896
vn -0.5680 0.4455 -0.6921
vn -0.6921 0.4455 -0.5680
vn -0.7896 0.4455 -0.4220
vn -0.8567 0.4455 -0.2599
vn -0.8910 0.4455 -0.0878
vn -0.8910 0.4455 0.0878
vn -0.8567 0.4455 0.2599
vn -0.7896 0.4455 0.4220
vn -0.6921 0.4455 0.5680
vn -0.5680 0.4455 0.6921
vn -0.4220 0.4455 0.7896
vn 0.0878 0.4455 0.8910
vn -0.2599 0.4455 0.8567
vn 0.0000 -1.0000 -0.0000
g Cone_003_Cone_003_Material_001
usemtl Material_001
s 1
f 1//1 2//1 3//1
f 4//2 2//2 5//2
f 6//3 2//3 1//3
f 7//4 2//4 6//4
f 8//5 2//5 7//5
f 9//6 2//6 8//6
f 10//7 2//7 9//7
f 11//8 2//8 10//8
f 12//9 2//9 11//9
f 13//10 2//10 12//10
f 14//11 2//11 13//11
f 15//12 2//12 14//12
f 16//13 2//13 15//13
f 17//14 2//14 16//14
f 18//15 2//15 17//15
f 19//16 2//16 18//16
f 20//17 2//17 19//17
f 21//18 2//18 20//18
f 22//19 2//19 21//19
f 23//20 2//20 22//20
f 24//21 2//21 23//21
f 25//22 2//22 24//22
f 26//23 2//23 25//23
f 27//24 2//24 26//24
f 28//25 2//25 27//25
f 29//26 2//26 28//26
f 30//27 2//27 29//27
f 31//28 2//28 30//28
f 32//29 2//29 31//29
f 33//30 2//30 32//30
f 3//31 2//31 4//31
f 5//32 2//32 33//32
f 4//33 5//33 33//33 32//33 31//33 30//33 29//33 28//33 27//33 26//33 25//33 24//33 23//33 22//33 21//33 20//33 19//33 18//33 17//33 16//33 15//33 14//33 13//33 12//33 11//33 10//33 9//33 8//33 7//33 6//33 1//33 3//33
o Cone_001
v 0.382682 5.586350 0.923882
v 0.000000 7.586350 0.000002
v 0.195089 5.586350 0.980788
v 0.000000 5.586350 1.000002
v -0.195090 5.586350 0.980787
v 0.555569 5.586350 0.831472
v 0.707106 5.586350 0.707110
v 0.831469 5.586350 0.555573
v 0.923879 5.586350 0.382687
v 0.980785 5.586350 0.195093
v 1.000000 5.586350 0.000003
v 0.980786 5.586350 -0.195087
v 0.923880 5.586350 -0.382681
v 0.831470 5.586350 -0.555568
v 0.707107 5.586350 -0.707104
v 0.555571 5.586350 -0.831467
v 0.382684 5.586350 -0.923877
v 0.195091 5.586350 -0.980783
v 0.000000 5.586350 -0.999998
v -0.195090 5.586350 -0.980783
v -0.382683 5.586350 -0.923878
v -0.555570 5.586350 -0.831468
v -0.707107 5.586350 -0.707105
v -0.831470 5.586350 -0.555568
v -0.923880 5.586350 -0.382681
v -0.980786 5.586350 -0.195088
v -1.000000 5.586350 0.000002
v -0.980785 5.586350 0.195092
v -0.923880 5.586350 0.382686
v -0.831470 5.586350 0.555572
v -0.707107 5.586350 0.707109
v -0.555570 5.586350 0.831472
v -0.382684 5.586350 0.923882
vn 0.2599 0.4455 0.8567
vn -0.0878 0.4455 0.8910
vn 0.4220 0.4455 0.7896
vn 0.5680 0.4455 0.6921
vn 0.6921 0.4455 0.5680
vn 0.7896 0.4455 0.4220
vn 0.8567 0.4455 0.2599
vn 0.8910 0.4455 0.0878
vn 0.8910 0.4455 -0.0878
vn 0.8567 0.4455 -0.2599
vn 0.7896 0.4455 -0.4220
vn 0.6921 0.4455 -0.5680
vn 0.5680 0.4455 -0.6921
vn 0.4220 0.4455 -0.7896
vn 0.2599 0.4455 -0.8567
vn 0.0878 0.4455 -0.8910
vn -0.0878 0.4455 -0.8910
vn -0.2599 0.4455 -0.8567
vn -0.4220 0.4455 -0.7896
vn -0.5680 0.4455 -0.6921
vn -0.6921 0.4455 -0.5680
vn -0.7896 0.4455 -0.4220
vn -0.8567 0.4455 -0.2599
vn -0.8910 0.4455 -0.0878
vn -0.8910 0.4455 0.0878
vn -0.8567 0.4455 0.2599
vn -0.7896 0.4455 0.4220
vn -0.6921 0.4455 0.5680
vn -0.5680 0.4455 0.6921
vn -0.4220 0.4455 0.7896
vn 0.0878 0.4455 0.8910
vn -0.2599 0.4455 0.8567
vn 0.0000 -1.0000 0.0000
g Cone_001_Cone_001_Material_005
usemtl Material_005
s 1
f 34//34 35//34 36//34
f 37//35 35//35 38//35
f 39//36 35//36 34//36
f 40//37 35//37 39//37
f 41//38 35//38 40//38
f 42//39 35//39 41//39
f 43//40 35//40 42//40
f 44//41 35//41 43//41
f 45//42 35//42 44//42
f 46//43 35//43 45//43
f 47//44 35//44 46//44
f 48//45 35//45 47//45
f 49//46 35//46 48//46
f 50//47 35//47 49//47
f 51//48 35//48 50//48
f 52//49 35//49 51//49
f 53//50 35//50 52//50
f 54//51 35//51 53//51
f 55//52 35//52 54//52
f 56//53 35//53 55//53
f 57//54 35//54 56//54
f 58//55 35//55 57//55
f 59//56 35//56 58//56
f 60//57 35//57 59//57
f 61//58 35//58 60//58
f 62//59 35//59 61//59
f 63//60 35//60 62//60
f 64//61 35//61 63//61
f 65//62 35//62 64//62
f 66//63 35//63 65//63
f 36//64 35//64 37//64
f 38//65 35//65 66//65
f 37//66 38//66 66//66 65//66 64//66 63//66 62//66 61//66 60//66 59//66 58//66 57//66 56//66 55//66 54//66 53//66 52//66 51//66 50//66 49//66 48//66 47//66 46//66 45//66 44//66 43//66 42//66 41//66 40//66 39//66 34//66 36//66
o Cylinder
v 0.008145 -0.090450 0.408980
v 0.008145 2.698050 0.408979
v -0.063109 2.698050 0.401961
v -0.063109 -0.090450 0.401962
v -0.131625 2.698050 0.381177
v -0.131625 -0.090450 0.381178
v -0.194770 2.698050 0.347426
v -0.194770 -0.090450 0.347426
v -0.250116 2.698050 0.302004
v -0.250116 -0.090450 0.302004
v -0.295538 2.698050 0.246657
v -0.295538 -0.090450 0.246657
v -0.329290 2.698050 0.183512
v -0.329290 -0.090450 0.183513
v -0.350074 2.698050 0.114997
v -0.350074 -0.090450 0.114997
v -0.357092 2.698050 0.043742
v -0.357092 -0.090450 0.043743
v -0.350074 2.698050 -0.027512
v -0.350074 -0.090450 -0.027511
v -0.329290 2.698050 -0.096028
v -0.329290 -0.090450 -0.096027
v -0.295538 2.698050 -0.159172
v -0.295538 -0.090450 -0.159172
v -0.250116 2.698050 -0.214519
v -0.250116 -0.090450 -0.214519
v -0.194770 2.698050 -0.259941
v -0.194770 -0.090450 -0.259941
v -0.131625 2.698050 -0.293693
v -0.131625 -0.090450 -0.293692
v -0.063109 2.698050 -0.314477
v -0.063109 -0.090450 -0.314476
v 0.008145 2.698050 -0.321495
v 0.008145 -0.090450 -0.321494
v 0.079400 2.698050 -0.314477
v 0.079400 -0.090450 -0.314476
v 0.147916 2.698050 -0.293693
v 0.147916 -0.090450 -0.293692
v 0.211060 2.698050 -0.259941
v 0.211060 -0.090450 -0.259941
v 0.266407 2.698050 -0.214519
v 0.266407 -0.090450 -0.214519
v 0.311829 2.698050 -0.159172
v 0.311829 -0.090450 -0.159172
v 0.345580 2.698050 -0.096028
v 0.345580 -0.090450 -0.096027
v 0.366364 2.698050 -0.027512
v 0.366364 -0.090450 -0.027511
v 0.373382 2.698050 0.043743
v 0.373382 -0.090450 0.043743
v 0.366364 2.698050 0.114997
v 0.366364 -0.090450 0.114997
v 0.345580 2.698050 0.183513
v 0.345580 -0.090450 0.183513
v 0.311829 2.698050 0.246657
v 0.311829 -0.090450 0.246658
v 0.266407 2.698050 0.302004
v 0.266407 -0.090450 0.302005
v 0.211060 2.698050 0.347426
v 0.211060 -0.090450 0.347426
v 0.147915 2.698050 0.381178
v 0.147915 -0.090450 0.381178
v 0.079399 2.698050 0.401962
v 0.079399 -0.090450 0.401962
vn -0.0980 0.0000 0.9952
vn -0.2903 0.0000 0.9569
vn -0.4714 0.0000 0.8819
vn -0.6344 -0.0000 0.7730
vn -0.7730 -0.0000 0.6344
vn -0.8819 0.0000 0.4714
vn -0.9569 0.0000 0.2903
vn -0.9952 0.0000 0.0980
vn -0.9952 -0.0000 -0.0980
vn -0.9569 -0.0000 -0.2903
vn -0.8819 -0.0000 -0.4714
vn -0.7730 0.0000 -0.6344
vn -0.6344 0.0000 -0.7730
vn -0.4714 -0.0000 -0.8819
vn -0.2903 -0.0000 -0.9569
vn -0.0980 -0.0000 -0.9952
vn 0.0980 -0.0000 -0.9952
vn 0.2903 -0.0000 -0.9569
vn 0.4714 -0.0000 -0.8819
vn 0.6344 0.0000 -0.7730
vn 0.7730 0.0000 -0.6344
vn 0.8819 -0.0000 -0.4714
vn 0.9569 -0.0000 -0.2903
vn 0.9952 0.0000 -0.0980
vn 0.9952 -0.0000 0.0980
vn 0.9569 -0.0000 0.2903
vn 0.8819 0.0000 0.4714
vn 0.7730 0.0000 0.6344
vn 0.6344 0.0000 0.7730
vn 0.4714 -0.0000 0.8819
vn 0.0000 1.0000 -0.0000
vn 0.0980 0.0000 0.9952
vn 0.2903 -0.0000 0.9569
vn 0.0000 -1.0000 -0.0000
g Cylinder_Cylinder_Material_003
usemtl Material_003
s 1
f 67//67 68//67 69//67 70//67
f 70//68 69//68 71//68 72//68
f 72//69 71//69 73//69 74//69
f 74//70 73//70 75//70 76//70
f 76//71 75//71 77//71 78//71
f 78//72 77//72 79//72 80//72
f 80//73 79//73 81//73 82//73
f 82//74 81//74 83//74 84//74
f 84//75 83//75 85//75 86//75
f 86//76 85//76 87//76 88//76
f 88//77 87//77 89//77 90//77
f 90//78 89//78 91//78 92//78
f 92//79 91//79 93//79 94//79
f 94//80 93//80 95//80 96//80
f 96//81 95//81 97//81 98//81
f 98//82 97//82 99//82 100//82
f 100//83 99//83 101//83 102//83
f 102//84 101//84 103//84 104//84
f 104//85 103//85 105//85 106//85
f 106//86 105//86 107//86 108//86
f 108//87 107//87 109//87 110//87
f 110//88 109//88 111//88 112//88
f 112//89 111//89 113//89 114//89
f 114//90 113//90 115//90 116//90
f 116//91 115//91 117//91 118//91
f 118//92 117//92 119//92 120//92
f 120//93 119//93 121//93 122//93
f 122//94 121//94 123//94 124//94
f 124//95 123//95 125//95 126//95
f 126//96 125//96 127//96 128//96
f 69//97 68//97 129//97 127//97 125//97 123//97 121//97 119//97 117//97 115//97 113//97 111//97 109//97 107//97 105//97 103//97 101//97 99//97 97//97 95//97 93//97 91//97 89//97 87//97 85//97 83//97 81//97 79//97 77//97 75//97 73//97 71//97
f 130//98 129//98 68//98 67//98
f 128//99 127//99 129//99 130//99
f 67//100 70//100 72//100 74//100 76//100 78//100 80//100 82//100 84//100 86//100 88//100 90//100 92//100 94//100 96//100 98//100 100//100 102//100 104//100 106//100 108//100 110//100 112//100 114//100 116//100 118//100 120//100 122//100 124//100 126//100 128//100 130//100
o Cone_002
v 0.542092 4.068590 1.308734
v 0.000000 6.901710 0.000002
v 0.276355 4.068590 1.389344
v 0.000000 4.068590 1.416562
v -0.276357 4.068590 1.389343
v 0.786997 4.068590 1.177830
v 1.001658 4.068590 1.001663
v 1.177826 4.068590 0.787002
v 1.308730 4.068590 0.542098
v 1.389341 4.068590 0.276361
v 1.416560 4.068590 0.000004
v 1.389342 4.068590 -0.276354
v 1.308732 4.068590 -0.542091
v 1.177827 4.068590 -0.786996
v 1.001660 4.068590 -1.001656
v 0.786999 4.068590 -1.177824
v 0.542095 4.068590 -1.308728
v 0.276358 4.068590 -1.389339
v 0.000000 4.068590 -1.416558
v -0.276357 4.068590 -1.389339
v -0.542094 4.068590 -1.308729
v -0.786999 4.068590 -1.177824
v -1.001660 4.068590 -1.001657
v -1.177827 4.068590 -0.786996
v -1.308731 4.068590 -0.542092
v -1.389342 4.068590 -0.276355
v -1.416560 4.068590 0.000002
v -1.389342 4.068590 0.276359
v -1.308731 4.068590 0.542096
v -1.177827 4.068590 0.787001
v -1.001660 4.068590 1.001661
v -0.786999 4.068590 1.177829
v -0.542094 4.068590 1.308733
vn 0.2599 0.4455 0.8567
vn -0.0878 0.4455 0.8910
vn 0.4220 0.4455 0.7896
vn 0.5680 0.4455 0.6921
vn 0.6921 0.4455 0.5680
vn 0.7896 0.4455 0.4220
vn 0.8567 0.4455 0.2599
vn 0.8910 0.4455 0.0878
vn 0.8910 0.4455 -0.0878
vn 0.8567 0.4455 -0.2599
vn 0.7896 0.4455 -0.4220
vn 0.6921 0.4455 -0.5680
vn 0.5680 0.4455 -0.6921
vn 0.4220 0.4455 -0.7896
vn 0.2599 0.4455 -0.8567
vn 0.0878 0.4455 -0.8910
vn -0.0878 0.4455 -0.8910
vn -0.2599 0.4455 -0.8567
vn -0.4220 0.4455 -0.7896
vn -0.5680 0.4455 -0.6921
vn -0.6921 0.4455 -0.5680
vn -0.7896 0.4455 -0.4220
vn -0.8567 0.4455 -0.2599
vn -0.8910 0.4455 -0.0878
vn -0.8910 0.4455 0.0878
vn -0.8567 0.4455 0.2599
vn -0.7896 0.4455 0.4220
vn -0.6921 0.4455 0.5680
vn -0.5680 0.4455 0.6921
vn -0.4220 0.4455 0.7896
vn 0.0878 0.4455 0.8910
vn -0.2599 0.4455 0.8567
vn 0.0000 -1.0000 0.0000
g Cone_002_Cone_002_Material_002
usemtl Material_002
s 1
f 131//101 132//101 133//101
f 134//102 132//102 135//102
f 136//103 132//103 131//103
f 137//104 132//104 136//104
f 138//105 132//105 137//105
f 139//106 132//106 138//106
f 140//107 132//107 139//107
f 141//108 132//108 140//108
f 142//109 132//109 141//109
f 143//110 132//110 142//110
f 144//111 132//111 143//111
f 145//112 132//112 144//112
f 146//113 132//113 145//113
f 147//114 132//114 146//114
f 148//115 132//115 147//115
f 149//116 132//116 148//116
f 150//117 132//117 149//117
f 151//118 132//118 150//118
f 152//119 132//119 151//119
f 153//120 132//120 152//120
f 154//121 132//121 153//121
f 155//122 132//122 154//122
f 156//123 132//123 155//123
f 157//124 132//124 156//124
f 158//125 132//125 157//125
f 159//126 132//126 158//126
f 160//127 132//127 159//127
f 161//128 132//128 160//128
f 162//129 132//129 161//129
f 163//130 132//130 162//130
f 133//131 132//131 134//131
f 135//132 132//132 163//132
f 134//133 135//133 163//133 162//133 161//133 160//133 159//133 158//133 157//133 156//133 155//133 154//133 153//133 152//133 151//133 150//133 149//133 148//133 147//133 146//133 145//133 144//133 143//133 142//133 141//133 140//133 139//133 138//133 137//133 136//133 131//133 133//133
